<svg width="169" height="30" viewBox="0 0 169 30" xmlns="http://www.w3.org/2000/svg"><title>Avito-logo-black</title><g fill="none" fill-rule="evenodd"><path d="M13.426 6.487c0 3.593-3.005 6.504-6.713 6.504S0 10.08 0 6.487C0 2.894 3.005-.018 6.713-.018s6.713 2.912 6.713 6.505m16.801 14.867c0 4.372-3.658 7.916-8.169 7.916-4.51 0-8.168-3.544-8.168-7.916 0-4.371 3.658-7.913 8.168-7.913 4.511 0 8.17 3.542 8.17 7.913m41.665-10.508h3.985v14.149h-3.985zm-5.652 0L62.34 21.141l-3.902-10.295h-3.985l5.365 14.149h5.044l5.364-14.149h-3.984m23.708 3.118v-3.118h-4.775V6.943h-3.983v3.903h-3.15v3.118h3.15v6.087c0 3.14 1.62 5.236 5.758 5.236 1.598 0 3-.568 3-.568l-.485-3.055s-.784.227-1.749.227c-1.182 0-2.54-.494-2.54-2.078v-5.849h4.773M43.862 17.92l2.472-6.516 2.47 6.517h-4.942zm7.624 7.075h4.241L47.872 4.27h-3.076l-7.857 20.724h4.242l1.5-3.956h7.304l1.5 3.956zm47.601-3.235c-2.221 0-4.022-1.706-4.022-3.811 0-2.104 1.8-3.811 4.022-3.811 2.223 0 4.022 1.707 4.022 3.81 0 2.106-1.8 3.813-4.022 3.813m0-11.276c-4.318 0-7.821 3.32-7.821 7.412 0 4.094 3.503 7.412 7.821 7.412s7.82-3.318 7.82-7.412c0-4.093-3.502-7.412-7.82-7.412M76.455 6.702c0 1.375-1.15 2.489-2.57 2.489-1.417 0-2.567-1.114-2.567-2.489 0-1.375 1.15-2.489 2.567-2.489 1.42 0 2.57 1.114 2.57 2.49m-49.139-.216c0 2.813-2.355 5.094-5.258 5.094S16.801 9.3 16.801 6.487s2.354-5.094 5.257-5.094c2.903 0 5.258 2.28 5.258 5.094M10.514 21.354c0 2.035-1.701 3.683-3.801 3.683s-3.801-1.648-3.801-3.683 1.702-3.683 3.8-3.683c2.1 0 3.802 1.648 3.802 3.683" fill="#FFF"/><text font-family="Latoto" font-size="20" letter-spacing="1" fill="#A8A8A8" transform="translate(0 -1)"><tspan x="117" y="26">TEC</tspan> <tspan x="155.56" y="26">H</tspan></text></g></svg>